<svg width="18" height="18" viewBox="0 0 18 18" fill="none" xmlns="http://www.w3.org/2000/svg">
<g clip-path="url(#clip0_942_16340)">
<rect width="18" height="18" fill="white" fill-opacity="0.01"/>
<path d="M17.4398 2.1825C17.5449 2.28794 17.6039 2.43075 17.6039 2.57962C17.6039 2.7285 17.5449 2.87131 17.4398 2.97675L16.2664 4.15125L14.0164 1.90125L15.1897 0.72675C15.2952 0.621297 15.4383 0.562057 15.5874 0.562057C15.7366 0.562057 15.8796 0.621297 15.9851 0.72675L17.4398 2.18137V2.1825ZM15.471 4.9455L13.221 2.6955L5.55638 10.3612C5.49446 10.4232 5.44785 10.4987 5.42025 10.5817L4.51463 13.2975C4.4982 13.347 4.49587 13.4001 4.50789 13.4509C4.51991 13.5016 4.54581 13.548 4.5827 13.5849C4.61958 13.6218 4.666 13.6477 4.71676 13.6597C4.76751 13.6718 4.82062 13.6694 4.87013 13.653L7.58588 12.7474C7.66886 12.7201 7.74435 12.6739 7.80638 12.6124L15.471 4.9455Z" fill="#7C8DC1"/>
<path fill-rule="evenodd" clip-rule="evenodd" d="M1.125 15.1875C1.125 15.6351 1.30279 16.0643 1.61926 16.3807C1.93573 16.6972 2.36495 16.875 2.8125 16.875H15.1875C15.6351 16.875 16.0643 16.6972 16.3807 16.3807C16.6972 16.0643 16.875 15.6351 16.875 15.1875V8.4375C16.875 8.28832 16.8157 8.14524 16.7102 8.03975C16.6048 7.93426 16.4617 7.875 16.3125 7.875C16.1633 7.875 16.0202 7.93426 15.9148 8.03975C15.8093 8.14524 15.75 8.28832 15.75 8.4375V15.1875C15.75 15.3367 15.6907 15.4798 15.5852 15.5852C15.4798 15.6907 15.3367 15.75 15.1875 15.75H2.8125C2.66332 15.75 2.52024 15.6907 2.41475 15.5852C2.30926 15.4798 2.25 15.3367 2.25 15.1875V2.8125C2.25 2.66332 2.30926 2.52024 2.41475 2.41475C2.52024 2.30926 2.66332 2.25 2.8125 2.25H10.125C10.2742 2.25 10.4173 2.19074 10.5227 2.08525C10.6282 1.97976 10.6875 1.83668 10.6875 1.6875C10.6875 1.53832 10.6282 1.39524 10.5227 1.28975C10.4173 1.18426 10.2742 1.125 10.125 1.125H2.8125C2.36495 1.125 1.93573 1.30279 1.61926 1.61926C1.30279 1.93572 1.125 2.36495 1.125 2.8125V15.1875Z" fill="#7C8DC1"/>
</g>
<defs>
<clipPath id="clip0_942_16340">
<rect width="18" height="18" fill="white"/>
</clipPath>
</defs>
</svg>
