<svg width="102" height="21" viewBox="0 0 102 21" fill="none" xmlns="http://www.w3.org/2000/svg">
<path d="M40.3179 14.5854C40.4101 14.7817 40.4563 14.978 40.4563 15.1743C40.4563 15.5215 40.3102 15.8159 40.0179 16.0575C39.7411 16.2991 39.4181 16.4199 39.049 16.4199C38.8029 16.4199 38.5722 16.3595 38.3569 16.2387C38.1416 16.1028 37.9724 15.899 37.8494 15.6272L36.4651 12.5924H28.3445L26.9603 15.6272C26.8372 15.899 26.668 16.1028 26.4527 16.2387C26.2374 16.3595 25.999 16.4199 25.7375 16.4199C25.3838 16.4199 25.0608 16.2991 24.7686 16.0575C24.4764 15.8159 24.3303 15.5215 24.3303 15.1743C24.3303 14.978 24.3764 14.7817 24.4687 14.5854L30.836 1.15505C30.9745 0.853079 31.1821 0.626598 31.4589 0.47561C31.7512 0.309524 32.0588 0.226481 32.3817 0.226481C32.7047 0.226481 33.0046 0.309524 33.2815 0.47561C33.5737 0.626598 33.789 0.853079 33.9274 1.15505L40.3179 14.5854ZM29.3595 10.3276H35.4501L32.4048 3.60105L29.3595 10.3276Z" fill="#3E4867"/>
<path d="M43.4136 16.4652C42.9983 16.4652 42.6523 16.352 42.3754 16.1255C42.114 15.8839 41.9832 15.5442 41.9832 15.1063V1.58537C41.9832 1.14751 42.114 0.815333 42.3754 0.588851C42.6523 0.36237 42.9983 0.249129 43.4136 0.249129C43.8288 0.249129 44.1749 0.36237 44.4517 0.588851C44.7286 0.815333 44.867 1.14751 44.867 1.58537V15.1063C44.867 15.5442 44.7286 15.8839 44.4517 16.1255C44.1749 16.352 43.8288 16.4652 43.4136 16.4652Z" fill="#3E4867"/>
<path d="M48.8098 16.4652C48.3946 16.4652 48.0485 16.352 47.7717 16.1255C47.5102 15.8839 47.3795 15.5442 47.3795 15.1063V6.36413C47.3795 5.92626 47.5102 5.59409 47.7717 5.36761C48.0485 5.14113 48.3946 5.02789 48.8098 5.02789C49.2251 5.02789 49.5711 5.14113 49.848 5.36761C50.1248 5.59409 50.2632 5.92626 50.2632 6.36413V15.1063C50.2632 15.5442 50.1248 15.8839 49.848 16.1255C49.5711 16.352 49.2251 16.4652 48.8098 16.4652ZM48.8098 3.0122C48.2869 3.0122 47.8716 2.87631 47.564 2.60454C47.2564 2.31766 47.1026 1.94774 47.1026 1.49478C47.1026 1.04181 47.2564 0.679443 47.564 0.407667C47.8716 0.135889 48.2869 0 48.8098 0C49.3174 0 49.7249 0.135889 50.0325 0.407667C50.3555 0.679443 50.517 1.04181 50.517 1.49478C50.517 1.94774 50.3632 2.31766 50.0556 2.60454C49.748 2.87631 49.3328 3.0122 48.8098 3.0122Z" fill="#3E4867"/>
<path d="M62.3268 5.02789C62.7574 5.02789 63.1035 5.14868 63.3649 5.39026C63.6264 5.63184 63.7571 5.95646 63.7571 6.36413V15.3101C63.7571 17.0465 63.2649 18.3601 62.2806 19.2509C61.2963 20.1417 59.8429 20.5872 57.9204 20.5872C56.2439 20.5872 54.8443 20.2776 53.7216 19.6586C53.1525 19.3264 52.868 18.9263 52.868 18.4582C52.868 18.1261 52.9449 17.8618 53.0987 17.6655C53.2679 17.4693 53.4832 17.3711 53.7447 17.3711C53.8831 17.3711 54.0523 17.4013 54.2522 17.4617C54.4522 17.5372 54.6598 17.6203 54.8751 17.7108C55.4288 17.9373 55.921 18.111 56.3516 18.2318C56.7976 18.3525 57.3052 18.4129 57.8742 18.4129C59.889 18.4129 60.8964 17.4466 60.8964 15.514V14.0645C60.5581 14.6835 60.0659 15.1667 59.4199 15.514C58.774 15.8461 58.0357 16.0122 57.2052 16.0122C56.2209 16.0122 55.3442 15.7858 54.5752 15.3328C53.8216 14.8647 53.2294 14.2155 52.7988 13.385C52.3682 12.5546 52.1528 11.5958 52.1528 10.5087C52.1528 9.42163 52.3605 8.46285 52.7757 7.63242C53.2064 6.78689 53.8062 6.13764 54.5752 5.68468C55.3442 5.21662 56.2209 4.98259 57.2052 4.98259C58.0357 4.98259 58.774 5.15622 59.4199 5.5035C60.0659 5.83567 60.5581 6.31128 60.8964 6.93033V6.34148C60.8964 5.94891 61.0271 5.63184 61.2886 5.39026C61.5501 5.14868 61.8961 5.02789 62.3268 5.02789ZM57.9665 13.8154C58.8893 13.8154 59.6045 13.5209 60.112 12.9321C60.635 12.3432 60.8964 11.5355 60.8964 10.5087C60.8964 9.46692 60.635 8.65159 60.112 8.06274C59.6045 7.47389 58.8893 7.17946 57.9665 7.17946C57.0591 7.17946 56.3439 7.47389 55.821 8.06274C55.2981 8.65159 55.0366 9.46692 55.0366 10.5087C55.0366 11.5355 55.2981 12.3432 55.821 12.9321C56.3439 13.5209 57.0591 13.8154 57.9665 13.8154Z" fill="#3E4867"/>
<path d="M72.8345 4.98259C74.1879 4.98259 75.1953 5.36006 75.8567 6.115C76.518 6.86994 76.8487 8.00989 76.8487 9.53487V15.1063C76.8487 15.5291 76.718 15.8612 76.4565 16.1028C76.2104 16.3444 75.8644 16.4652 75.4183 16.4652C74.9723 16.4652 74.6186 16.3444 74.3571 16.1028C74.0956 15.8612 73.9649 15.5291 73.9649 15.1063V9.6934C73.9649 8.83277 73.7957 8.20617 73.4574 7.81361C73.1344 7.42104 72.6192 7.22476 71.9117 7.22476C71.0812 7.22476 70.4121 7.48143 69.9046 7.99479C69.4124 8.50815 69.1663 9.19514 69.1663 10.0558V15.1063C69.1663 15.5291 69.0356 15.8612 68.7741 16.1028C68.5127 16.3444 68.1589 16.4652 67.7129 16.4652C67.2669 16.4652 66.9131 16.3444 66.6517 16.1028C66.4056 15.8612 66.2826 15.5291 66.2826 15.1063V6.34148C66.2826 5.94891 66.4133 5.63184 66.6748 5.39026C66.9362 5.14868 67.29 5.02789 67.736 5.02789C68.1359 5.02789 68.4588 5.14868 68.7049 5.39026C68.9664 5.61674 69.0971 5.91871 69.0971 6.29618V6.90768C69.4816 6.28863 69.9969 5.81302 70.6428 5.48085C71.2888 5.14868 72.0193 4.98259 72.8345 4.98259Z" fill="#3E4867"/>
<path d="M88.2444 13.2945C88.5059 13.2945 88.7135 13.3926 88.8673 13.5889C89.0365 13.7852 89.1211 14.0494 89.1211 14.3816C89.1211 14.8496 88.8366 15.2422 88.2675 15.5593C87.7446 15.8461 87.1524 16.0802 86.4911 16.2614C85.8297 16.4274 85.1992 16.5105 84.5993 16.5105C82.7845 16.5105 81.3465 15.9971 80.2852 14.9704C79.224 13.9437 78.6934 12.5395 78.6934 10.7579C78.6934 9.62546 78.9241 8.62139 79.3855 7.74566C79.8469 6.86994 80.4929 6.19049 81.3234 5.70733C82.1693 5.22417 83.1229 4.98259 84.1841 4.98259C85.1992 4.98259 86.0835 5.20152 86.8371 5.63939C87.5908 6.07725 88.1752 6.6963 88.5905 7.49653C89.0057 8.29677 89.2134 9.24044 89.2134 10.3276C89.2134 10.9768 88.9212 11.3014 88.3367 11.3014H81.531C81.6233 12.3432 81.9232 13.1133 82.4308 13.6115C82.9383 14.0947 83.6765 14.3363 84.6455 14.3363C85.1376 14.3363 85.5683 14.2759 85.9374 14.1551C86.3219 14.0343 86.7526 13.8682 87.2293 13.6568C87.6907 13.4152 88.0291 13.2945 88.2444 13.2945ZM84.2533 6.97563C83.4689 6.97563 82.8383 7.21721 82.3615 7.70037C81.9001 8.18353 81.6233 8.87807 81.531 9.78399H86.7449C86.7141 8.86297 86.4834 8.16843 86.0528 7.70037C85.6221 7.21721 85.0223 6.97563 84.2533 6.97563Z" fill="#3E4867"/>
<path d="M100.523 0.249129C100.954 0.249129 101.308 0.369919 101.585 0.6115C101.862 0.85308 102 1.17015 102 1.56272V15.1063C102 15.514 101.869 15.8386 101.608 16.0802C101.346 16.3218 101 16.4425 100.57 16.4425C100.139 16.4425 99.7929 16.3218 99.5315 16.0802C99.27 15.8386 99.1393 15.514 99.1393 15.1063V14.5401C98.8009 15.1592 98.3088 15.6423 97.6628 15.9896C97.0322 16.3369 96.3094 16.5105 95.4942 16.5105C94.5253 16.5105 93.6563 16.2689 92.8873 15.7858C92.1337 15.3026 91.5415 14.6231 91.1109 13.7474C90.6956 12.8566 90.488 11.8374 90.488 10.6899C90.488 9.54241 90.6956 8.53835 91.1109 7.67772C91.5415 6.81709 92.1337 6.15274 92.8873 5.68468C93.6409 5.21662 94.5099 4.98259 95.4942 4.98259C96.3094 4.98259 97.0322 5.14868 97.6628 5.48085C98.2934 5.81302 98.7779 6.28108 99.1162 6.88503V1.51742C99.1162 1.13996 99.2393 0.837981 99.4853 0.6115C99.7468 0.369919 100.093 0.249129 100.523 0.249129ZM96.2555 14.3136C97.1783 14.3136 97.8858 14.0041 98.378 13.385C98.8855 12.766 99.1393 11.8827 99.1393 10.7352C99.1393 9.58771 98.8855 8.71198 98.378 8.10803C97.8858 7.48898 97.186 7.17946 96.2786 7.17946C95.3558 7.17946 94.6406 7.48143 94.1331 8.08538C93.6255 8.68933 93.3718 9.55751 93.3718 10.6899C93.3718 11.8374 93.6255 12.7283 94.1331 13.3624C94.6406 13.9965 95.3481 14.3136 96.2555 14.3136Z" fill="#3E4867"/>
<path d="M4.67889 3.74316C4.67889 2.19271 5.93578 0.935822 7.48623 0.935822H23.3945V2.5505C23.3945 4.75964 21.6036 6.5505 19.3945 6.5505H7.48624C5.93579 6.5505 4.67889 5.29361 4.67889 3.74316Z" fill="#3BCAB0"/>
<path d="M18.7156 12.1652C18.7156 13.7156 17.4587 14.9725 15.9082 14.9725L-1.90735e-05 14.9725L-1.8939e-05 13.3579C-1.87551e-05 11.1487 1.79084 9.35786 3.99998 9.35786L15.9082 9.35786C17.4587 9.35786 18.7156 10.6147 18.7156 12.1652Z" fill="#FD910C"/>
</svg>
