<svg width="18" height="18" viewBox="0 0 18 18" fill="none" xmlns="http://www.w3.org/2000/svg">
<g clip-path="url(#clip0_905_16343)">
<rect width="18" height="18" fill="white" fill-opacity="0.01"/>
<path d="M5.30438 7.35975L3.76088 8.90325C3.12789 9.53624 2.77228 10.3948 2.77228 11.2899C2.77228 12.1851 3.12789 13.0436 3.76088 13.6766C4.39386 14.3096 5.25238 14.6652 6.14756 14.6652C7.04275 14.6652 7.90126 14.3096 8.53425 13.6766L10.5908 11.619C10.9725 11.2372 11.257 10.7695 11.4205 10.255C11.5841 9.7405 11.6218 9.19428 11.5305 8.6622C11.4393 8.13012 11.2217 7.62768 10.8961 7.19708C10.5705 6.76647 10.1463 6.42026 9.65925 6.1875L9 6.84675C8.93307 6.9138 8.87486 6.98901 8.82675 7.07062C9.20309 7.17881 9.54469 7.38335 9.81776 7.66401C10.0908 7.94468 10.2859 8.29175 10.3838 8.67091C10.4816 9.05008 10.4788 9.44822 10.3756 9.82596C10.2724 10.2037 10.0724 10.548 9.79538 10.8247L7.74 12.8812C7.31781 13.3034 6.7452 13.5406 6.14813 13.5406C5.55106 13.5406 4.97844 13.3034 4.55625 12.8812C4.13406 12.4591 3.89687 11.8864 3.89687 11.2894C3.89687 10.6923 4.13406 10.1197 4.55625 9.6975L5.44838 8.8065C5.32251 8.33482 5.27388 7.84698 5.30438 7.35975Z" fill="#7C8DC1"/>
<path d="M7.40925 5.256C7.02754 5.63776 6.74299 6.10552 6.57946 6.62001C6.41594 7.1345 6.37822 7.68071 6.46947 8.2128C6.56072 8.74488 6.77828 9.24731 7.10389 9.67792C7.4295 10.1085 7.85365 10.4547 8.34075 10.6875L9.21263 9.8145C8.83119 9.71219 8.48341 9.51128 8.20422 9.23198C7.92502 8.95267 7.72427 8.6048 7.62211 8.22332C7.51996 7.84185 7.52001 7.4402 7.62226 7.05875C7.72451 6.6773 7.92536 6.32948 8.20463 6.05025L10.26 3.99375C10.6822 3.57156 11.2548 3.33437 11.8519 3.33437C12.4489 3.33437 13.0216 3.57156 13.4438 3.99375C13.8659 4.41594 14.1031 4.98855 14.1031 5.58562C14.1031 6.18269 13.8659 6.75531 13.4438 7.1775L12.5516 8.0685C12.6776 8.541 12.726 9.03037 12.6956 9.51637L14.2391 7.97287C14.8721 7.33988 15.2277 6.48137 15.2277 5.58618C15.2277 4.691 14.8721 3.83249 14.2391 3.1995C13.6061 2.56651 12.7476 2.2109 11.8524 2.2109C10.9573 2.2109 10.0987 2.56651 9.46575 3.1995L7.40925 5.256Z" fill="#7C8DC1"/>
</g>
<defs>
<clipPath id="clip0_905_16343">
<rect width="18" height="18" fill="white"/>
</clipPath>
</defs>
</svg>
