<svg width="226" height="113" viewBox="0 0 226 113" fill="none" xmlns="http://www.w3.org/2000/svg">
<rect x="7.62939e-06" width="226" height="113" fill="#3485FF"/>
<path d="M100.588 56.4999C100.567 58.5386 100.954 60.561 101.726 62.4486C102.499 64.3362 103.641 66.0511 105.085 67.4928C106.53 68.9345 108.249 70.074 110.14 70.8446C112.032 71.6152 114.059 72.0014 116.102 71.9806L140.924 71.9806C145.038 71.9806 148.984 70.3496 151.893 67.4464C154.803 64.5432 156.437 60.6056 156.437 56.4999C156.437 52.3941 154.803 48.4565 151.893 45.5533C148.984 42.6501 145.038 41.0191 140.924 41.0191L137.821 41.0191" stroke="white" stroke-width="5.5" stroke-linecap="round" stroke-linejoin="round"/>
<path d="M125.411 56.5001C125.432 54.4614 125.045 52.439 124.273 50.5514C123.501 48.6638 122.359 46.9489 120.914 45.5072C119.469 44.0655 117.751 42.926 115.859 42.1554C113.968 41.3848 111.941 40.9986 109.898 41.0194L85.0758 41.0194C80.9613 41.0194 77.0153 42.6504 74.1059 45.5536C71.1965 48.4568 69.5621 52.3944 69.5621 56.5001C69.5621 60.6059 71.1965 64.5434 74.1059 67.4467C77.0153 70.3499 80.9613 71.9809 85.0758 71.9809L88.1785 71.9809" stroke="white" stroke-width="5.5" stroke-linecap="round" stroke-linejoin="round"/>
</svg>
