<svg width="40" height="28" viewBox="0 0 40 28" fill="none" xmlns="http://www.w3.org/2000/svg">
<path d="M20.1288 0H20.3513C22.4064 0.0074086 32.8196 0.0814951 35.6272 0.827295C36.476 1.05491 37.2495 1.49857 37.8703 2.11394C38.4911 2.72931 38.9375 3.49485 39.165 4.33403C39.4175 5.27246 39.595 6.51463 39.715 7.79632L39.74 8.05315L39.795 8.69523L39.815 8.95206C39.9775 11.2092 39.9975 13.3231 40 13.7849V13.9702C39.9975 14.4492 39.975 16.7064 39.795 19.0574L39.775 19.3167L39.7525 19.5735C39.6275 20.9861 39.4425 22.3888 39.165 23.4211C38.9382 24.2606 38.492 25.0265 37.8711 25.642C37.2502 26.2574 36.4764 26.7009 35.6272 26.9278C32.727 27.6983 21.7039 27.7526 20.1763 27.7551H19.8212C19.0487 27.7551 15.8535 27.7403 12.5033 27.6267L12.0783 27.6119L11.8607 27.602L11.4332 27.5847L11.0057 27.5674C8.23051 27.4464 5.58785 27.2513 4.37027 26.9253C3.52144 26.6986 2.74783 26.2556 2.12694 25.6405C1.50605 25.0255 1.05968 24.2601 0.832552 23.4211C0.555035 22.3913 0.370023 20.9861 0.245015 19.5735L0.225014 19.3142L0.205013 19.0574C0.0816241 17.384 0.0132505 15.7072 0 14.0294L0 13.7257C0.00500031 13.1947 0.0250016 11.3599 0.16001 9.33484L0.177511 9.08048L0.185012 8.95206L0.205013 8.69523L0.260016 8.05315L0.285018 7.79632C0.405025 6.51463 0.582536 5.26999 0.835052 4.33403C1.0618 3.49451 1.508 2.72862 2.12892 2.11314C2.74983 1.49766 3.52364 1.05423 4.37277 0.827295C5.59035 0.506255 8.23302 0.308692 11.0082 0.185215L11.4332 0.167928L11.8632 0.153112L12.0783 0.145703L12.5058 0.128416C14.8852 0.0527856 17.2656 0.0107989 19.6462 0.00246965H20.1288V0ZM16.001 7.92721V19.8254L26.3941 13.8788L16.001 7.92721Z" fill="#EC3323"/>
</svg>
