<svg width="40" height="28" viewBox="0 0 40 28" fill="none" xmlns="http://www.w3.org/2000/svg">
<rect width="40" height="27.2" rx="4" fill="#3485FF"/>
<path d="M17.2031 15.598C17.529 15.9306 17.918 16.1949 18.3473 16.3752C18.7765 16.5556 19.2375 16.6485 19.7031 16.6485C20.1688 16.6485 20.6297 16.5556 21.059 16.3752C21.4883 16.1949 21.8772 15.9306 22.2031 15.598L26.2031 11.598C26.8662 10.935 27.2387 10.0357 27.2387 9.09803C27.2387 8.16035 26.8662 7.26108 26.2031 6.59803C25.5401 5.93499 24.6408 5.5625 23.7031 5.5625C22.7654 5.5625 21.8662 5.93499 21.2031 6.59803L20.7031 7.09803" stroke="white" stroke-width="2.2" stroke-linecap="round" stroke-linejoin="round"/>
<path d="M22.0004 11.6052C21.6745 11.2726 21.2855 11.0084 20.8563 10.828C20.427 10.6476 19.966 10.5547 19.5004 10.5547C19.0347 10.5547 18.5738 10.6476 18.1445 10.828C17.7152 11.0084 17.3263 11.2726 17.0004 11.6052L13.0004 15.6052C12.3373 16.2682 11.9648 17.1675 11.9648 18.1052C11.9648 19.0429 12.3373 19.9422 13.0004 20.6052C13.6634 21.2682 14.5627 21.6407 15.5004 21.6407C16.4381 21.6407 17.3373 21.2682 18.0004 20.6052L18.5004 20.1052" stroke="white" stroke-width="2.2" stroke-linecap="round" stroke-linejoin="round"/>
</svg>
