<svg width="100" height="101" viewBox="0 0 100 101" fill="none" xmlns="http://www.w3.org/2000/svg">
<path d="M37.5879 50.4999C37.567 52.5386 37.9541 54.561 38.7263 56.4486C39.4986 58.3362 40.6405 60.0511 42.0853 61.4928C43.53 62.9345 45.2486 64.074 47.1402 64.8446C49.0318 65.6152 51.0585 66.0014 53.1016 65.9806L77.9236 65.9806C82.0381 65.9806 85.984 64.3496 88.8934 61.4464C91.8028 58.5432 93.4373 54.6056 93.4373 50.4999C93.4373 46.3941 91.8028 42.4565 88.8934 39.5533C85.984 36.6501 82.0381 35.0191 77.9236 35.0191L74.8208 35.0191" stroke="white" stroke-width="5.5" stroke-linecap="round" stroke-linejoin="round"/>
<path d="M62.4114 50.5001C62.4323 48.4614 62.0452 46.439 61.273 44.5514C60.5007 42.6638 59.3588 40.9489 57.914 39.5072C56.4693 38.0655 54.7508 36.926 52.8591 36.1554C50.9675 35.3848 48.9408 34.9986 46.8977 35.0194L22.0758 35.0194C17.9613 35.0194 14.0153 36.6504 11.1059 39.5536C8.19653 42.4568 6.56205 46.3944 6.56205 50.5001C6.56205 54.6059 8.19653 58.5434 11.1059 61.4467C14.0153 64.3499 17.9613 65.9809 22.0758 65.9809L25.1785 65.9809" stroke="white" stroke-width="5.5" stroke-linecap="round" stroke-linejoin="round"/>
</svg>
